<svg width="50" height="50" viewBox="0 0 50 50" fill="none" xmlns="http://www.w3.org/2000/svg">
<rect width="50" height="50" fill="url(#paint0_linear_91_1470)"/>
<g clip-path="url(#clip0_91_1470)">
<path d="M24.5 12C21.4391 11.9974 18.4842 13.121 16.1983 15.1567C15.9662 15.3629 15.9207 15.7082 16.0913 15.9675C16.262 16.2268 16.5971 16.3216 16.8783 16.19C18.0899 15.6223 19.4121 15.3298 20.75 15.3333C24.5047 15.3346 27.879 17.6254 29.2656 21.1147C30.6523 24.6039 29.7709 28.586 27.0412 31.1641C24.3116 33.7422 20.2857 34.3951 16.8813 32.8117C16.5995 32.679 16.2631 32.774 16.0923 33.0344C15.9216 33.2948 15.9685 33.6412 16.2025 33.8467C18.4861 35.8829 21.4404 37.0057 24.5 37C24.6446 37 24.7917 36.9975 24.9354 36.9921C31.34 36.729 36.524 31.695 36.975 25.3008C37.2084 21.8484 35.9891 18.4555 33.6117 15.9413C31.2452 13.431 27.9498 12.0056 24.5 12ZM36.1433 25.25C35.8728 29.4556 33.3552 33.1884 29.5574 35.0149C25.7595 36.8415 21.2718 36.4779 17.8175 34.0638C18.8347 34.3747 19.8949 34.5219 20.9583 34.5C24.8573 34.4119 28.3493 32.065 29.9037 28.4882C31.4581 24.9114 30.7913 20.7572 28.1955 17.8466C25.5997 14.936 21.5486 13.8001 17.8179 14.9367C21.4932 12.3683 26.3153 12.1334 30.2228 14.3325C34.1303 16.5316 36.4317 20.7755 36.1433 25.25Z" fill="white"/>
<path d="M12.5962 24.1215C12.4227 24.3442 12.4227 24.6563 12.5962 24.879C13.1354 25.5832 15.9999 29.0832 19.4999 29.0832C22.9999 29.0832 25.8645 25.5832 26.4037 24.8782C26.5771 24.6557 26.5771 24.3439 26.4037 24.1215C25.8645 23.4186 22.9999 19.9165 19.4999 19.9165C15.9999 19.9165 13.1354 23.4186 12.5962 24.1215ZM25.4258 24.7623C24.5241 25.8332 22.1908 28.2498 19.4999 28.2498C16.8091 28.2498 14.4754 25.8332 13.5741 24.7623C14.3484 23.956 15.301 23.3423 16.3554 22.9707C15.8707 24.3509 16.3424 25.8858 17.5187 26.7554C18.6949 27.6251 20.3007 27.6263 21.4782 26.7583C22.6557 25.8904 23.1297 24.3561 22.647 22.9753C23.6985 23.3492 24.6494 23.9607 25.4258 24.7623ZM16.9999 24.0832C16.9983 23.5629 17.1642 23.0559 17.4733 22.6373C18.8089 22.3421 20.193 22.3429 21.5283 22.6398C21.8362 23.0579 22.0016 23.5639 21.9999 24.0832C21.9999 25.4639 20.8807 26.5832 19.4999 26.5832C18.1192 26.5832 16.9999 25.4639 16.9999 24.0832ZM19.4999 20.7498C21.0783 20.7498 22.532 21.5832 23.6491 22.489C22.3515 21.8797 20.9334 21.5701 19.4999 21.5832C18.0665 21.5701 16.6484 21.8797 15.3508 22.489C16.4679 21.5832 17.9216 20.7498 19.4999 20.7498Z" fill="white"/>
<path d="M19.9167 18.6668V17.0002C19.9167 16.77 19.7302 16.5835 19.5 16.5835C19.2699 16.5835 19.0834 16.77 19.0834 17.0002V18.6668C19.0834 18.8969 19.2699 19.0835 19.5 19.0835C19.7302 19.0835 19.9167 18.8969 19.9167 18.6668Z" fill="white"/>
<path d="M17 19.5C17.1339 19.5 17.2597 19.4356 17.3381 19.327C17.4164 19.2184 17.4377 19.0787 17.3954 18.9516L16.9788 17.7016C16.906 17.483 16.6699 17.3647 16.4513 17.4375C16.2326 17.5102 16.1144 17.7463 16.1871 17.965L16.6038 19.215C16.6605 19.3855 16.8203 19.5004 17 19.5Z" fill="white"/>
<path d="M14.3779 19.2053C14.2144 19.0474 13.9545 19.0497 13.7938 19.2104C13.6331 19.3711 13.6308 19.631 13.7887 19.7945L14.622 20.6278C14.7267 20.7362 14.8816 20.7796 15.0273 20.7415C15.1729 20.7033 15.2867 20.5896 15.3248 20.4439C15.363 20.2982 15.3195 20.1433 15.2112 20.0387L14.3779 19.2053Z" fill="white"/>
<path d="M12.5388 22.2947C12.6434 22.403 12.7983 22.4464 12.944 22.4083C13.0896 22.3702 13.2034 22.2564 13.2415 22.1107C13.2797 21.965 13.2362 21.8101 13.1279 21.7055L12.7113 21.2888C12.6066 21.1805 12.4517 21.1371 12.306 21.1752C12.1604 21.2133 12.0466 21.3271 12.0085 21.4728C11.9703 21.6185 12.0138 21.7734 12.1221 21.878L12.5388 22.2947Z" fill="white"/>
<path d="M22 19.5C22.1794 19.5 22.3387 19.3852 22.3954 19.215L22.8121 17.965C22.8848 17.7463 22.7665 17.5102 22.5479 17.4375C22.3293 17.3647 22.0931 17.483 22.0204 17.7016L21.6038 18.9516C21.5614 19.0788 21.5828 19.2187 21.6614 19.3273C21.7399 19.436 21.8659 19.5003 22 19.5Z" fill="white"/>
<path d="M24.3779 20.6278L25.2112 19.7945C25.3691 19.631 25.3669 19.3711 25.2061 19.2104C25.0454 19.0497 24.7855 19.0474 24.622 19.2053L23.7887 20.0387C23.6804 20.1433 23.637 20.2982 23.6751 20.4439C23.7132 20.5896 23.827 20.7033 23.9727 20.7415C24.1183 20.7796 24.2733 20.7362 24.3779 20.6278Z" fill="white"/>
<path d="M26.8779 21.289C26.7152 21.1263 26.4515 21.1263 26.2888 21.289L25.8721 21.7057C25.7638 21.8103 25.7203 21.9652 25.7585 22.1109C25.7966 22.2565 25.9104 22.3703 26.056 22.4084C26.2017 22.4466 26.3566 22.4031 26.4613 22.2948L26.8779 21.8782C27.0406 21.7154 27.0406 21.4517 26.8779 21.289Z" fill="white"/>
<path d="M19.0834 30.3332V31.9998C19.0834 32.23 19.2699 32.4165 19.5 32.4165C19.7302 32.4165 19.9167 32.23 19.9167 31.9998V30.3332C19.9167 30.1031 19.7302 29.9165 19.5 29.9165C19.2699 29.9165 19.0834 30.1031 19.0834 30.3332Z" fill="white"/>
<path d="M16.6046 29.785L16.1879 31.035C16.1152 31.2536 16.2335 31.4898 16.4521 31.5625C16.6707 31.6352 16.9069 31.517 16.9796 31.2983L17.3963 30.0483C17.4433 29.9069 17.4113 29.7512 17.3124 29.6397C17.2134 29.5283 17.0625 29.4781 16.9166 29.508C16.7706 29.538 16.6516 29.6436 16.6046 29.785Z" fill="white"/>
<path d="M14.622 28.3723L13.7887 29.2057C13.6804 29.3103 13.637 29.4652 13.6751 29.6109C13.7132 29.7566 13.827 29.8703 13.9727 29.9085C14.1183 29.9466 14.2733 29.9031 14.3779 29.7948L15.2112 28.9615C15.3691 28.798 15.3669 28.5381 15.2061 28.3774C15.0454 28.2167 14.7855 28.2144 14.622 28.3723Z" fill="white"/>
<path d="M12.5388 26.7053L12.1221 27.122C12.0138 27.2266 11.9703 27.3815 12.0085 27.5272C12.0466 27.6729 12.1604 27.7867 12.306 27.8248C12.4517 27.8629 12.6066 27.8195 12.7113 27.7112L13.1279 27.2945C13.2858 27.131 13.2836 26.8711 13.1228 26.7104C12.9621 26.5497 12.7022 26.5474 12.5388 26.7053Z" fill="white"/>
<path d="M21.8684 29.5217C21.6502 29.5943 21.5321 29.8301 21.6046 30.0483L22.0213 31.2983C22.094 31.5169 22.3302 31.6352 22.5488 31.5625C22.7674 31.4898 22.8857 31.2536 22.8129 31.035L22.3963 29.785C22.3613 29.68 22.286 29.5932 22.1869 29.5438C22.0879 29.4944 21.9733 29.4864 21.8684 29.5217Z" fill="white"/>
<path d="M24.3779 28.3723C24.2144 28.2144 23.9545 28.2167 23.7938 28.3774C23.6331 28.5381 23.6308 28.798 23.7887 28.9615L24.622 29.7948C24.7855 29.9527 25.0454 29.9505 25.2061 29.7898C25.3669 29.629 25.3691 29.3692 25.2112 29.2057L24.3779 28.3723Z" fill="white"/>
<path d="M26.4613 26.7053C26.2978 26.5474 26.0379 26.5497 25.8772 26.7104C25.7164 26.8711 25.7142 27.131 25.8721 27.2945L26.2888 27.7112C26.4522 27.8691 26.7121 27.8668 26.8728 27.7061C27.0336 27.5454 27.0358 27.2855 26.8779 27.122L26.4613 26.7053Z" fill="white"/>
<path d="M19.5 25.75C20.1904 25.75 20.75 25.1904 20.75 24.5C20.75 23.8096 20.1904 23.25 19.5 23.25C18.8096 23.25 18.25 23.8096 18.25 24.5C18.25 25.1904 18.8096 25.75 19.5 25.75ZM19.5 24.0833C19.7301 24.0833 19.9167 24.2699 19.9167 24.5C19.9167 24.7301 19.7301 24.9167 19.5 24.9167C19.2699 24.9167 19.0833 24.7301 19.0833 24.5C19.0833 24.2699 19.2699 24.0833 19.5 24.0833Z" fill="white"/>
</g>
<defs>
<linearGradient id="paint0_linear_91_1470" x1="53.2692" y1="55.1923" x2="-29.6987" y2="43.0531" gradientUnits="userSpaceOnUse">
<stop stop-color="#0B3F37"/>
<stop offset="0.969562" stop-color="#CB8D62"/>
</linearGradient>
<clipPath id="clip0_91_1470">
<rect width="25" height="25" fill="white" transform="translate(12 12)"/>
</clipPath>
</defs>
</svg>
