<svg width="50" height="50" viewBox="0 0 50 50" fill="none" xmlns="http://www.w3.org/2000/svg">
<rect width="50" height="50" fill="url(#paint0_linear_91_1440)"/>
<g clip-path="url(#clip0_91_1440)">
<path d="M37.5868 23.8204C38.1047 23.3156 38.2876 22.5747 38.0642 21.886C37.8402 21.1972 37.2569 20.7056 36.5402 20.6013L30.1684 19.6754C29.897 19.6359 29.6625 19.4657 29.5413 19.2196L26.6926 13.4458C26.3728 12.7972 25.7236 12.394 25.0001 12.394C24.2771 12.394 23.6279 12.7972 23.308 13.4458L20.4588 19.2196C20.3376 19.4657 20.1026 19.6359 19.8312 19.6754L13.4594 20.6018C12.7433 20.7056 12.1599 21.1972 11.936 21.886C11.7125 22.5747 11.8954 23.3156 12.4134 23.8204L17.0237 28.3142C17.2202 28.506 17.3103 28.7821 17.2639 29.0519L16.1758 35.398C16.0535 36.1109 16.3407 36.8176 16.9262 37.2433C17.5111 37.6696 18.2725 37.725 18.9138 37.3872L24.6122 34.391C24.8552 34.2634 25.145 34.2634 25.3879 34.391L31.0868 37.3872C31.3651 37.5337 31.6665 37.6059 31.9663 37.6059C32.3557 37.6059 32.7436 37.4842 33.0745 37.2433C33.6599 36.8176 33.9471 36.1109 33.8249 35.398L32.7362 29.0525C32.6898 28.7821 32.7799 28.5065 32.9765 28.3147L37.5868 23.8204ZM31.6981 29.2306L32.7863 35.5761C32.8411 35.8954 32.7172 36.2005 32.4548 36.3913C32.1919 36.5815 31.8646 36.6047 31.5774 36.455L25.8785 33.4583C25.604 33.3144 25.3015 33.2417 25.0001 33.2417C24.6987 33.2417 24.3967 33.3144 24.1216 33.4588L18.4238 36.455C18.1355 36.6047 17.8083 36.5815 17.5459 36.3913C17.2834 36.2005 17.1601 35.8959 17.2144 35.5761L18.3026 29.2306C18.4074 28.6182 18.2045 27.9933 17.7598 27.5601L13.149 23.0658C12.9166 22.8392 12.8376 22.5199 12.9382 22.2116C13.0383 21.9028 13.2897 21.691 13.6106 21.6441L19.9819 20.7182C20.5969 20.6292 21.1286 20.2435 21.4031 19.686L24.2523 13.9122C24.3957 13.6213 24.6755 13.4479 24.9995 13.4479C25.3241 13.4479 25.6034 13.6213 25.7473 13.9122L28.5965 19.686C28.871 20.2435 29.4022 20.6292 30.0171 20.7182L36.389 21.6441C36.7099 21.691 36.9613 21.9028 37.0614 22.2116C37.1615 22.5199 37.083 22.8392 36.8506 23.0658L32.2403 27.5596C31.7956 27.9933 31.5927 28.6177 31.6981 29.2306Z" fill="white"/>
</g>
<path d="M13.8499 29.8129L11.191 31.348C10.8239 31.56 10.379 31.4767 10.1974 31.162C10.0157 30.8474 10.166 30.4205 10.5331 30.2085L13.192 28.6734C13.5591 28.4615 14.004 28.5447 14.1856 28.8594C14.3673 29.1741 14.217 29.601 13.8499 29.8129Z" fill="white"/>
<path d="M33.0735 16.9069L35.1034 14.6035C35.3837 14.2855 35.3899 13.8329 35.1174 13.5927C34.8448 13.3525 34.3966 13.4155 34.1163 13.7336L32.0864 16.0369C31.8061 16.3549 31.7999 16.8075 32.0725 17.0477C32.3451 17.2879 32.7933 17.2249 33.0735 16.9069Z" fill="white"/>
<path d="M35.884 30.9121L38.5429 32.4471C38.91 32.6591 39.3549 32.5758 39.5365 32.2612C39.7182 31.9465 39.5679 31.5196 39.2008 31.3076L36.5419 29.7725C36.1748 29.5606 35.7299 29.6439 35.5483 29.9585C35.3666 30.2732 35.5169 30.7001 35.884 30.9121Z" fill="white"/>
<path d="M17.0111 16.9069L14.9811 14.6035C14.7009 14.2855 14.6946 13.8329 14.9672 13.5927C15.2398 13.3525 15.688 13.4155 15.9683 13.7336L17.9982 16.0369C18.2785 16.3549 18.2847 16.8075 18.0121 17.0477C17.7395 17.2879 17.2913 17.2249 17.0111 16.9069Z" fill="white"/>
<defs>
<linearGradient id="paint0_linear_91_1440" x1="53.2692" y1="55.1923" x2="-29.6987" y2="43.0531" gradientUnits="userSpaceOnUse">
<stop stop-color="#0B3F37"/>
<stop offset="0.969562" stop-color="#CB8D62"/>
</linearGradient>
<clipPath id="clip0_91_1440">
<rect width="26.3158" height="26.3158" fill="white" transform="translate(11.8422 11.8423)"/>
</clipPath>
</defs>
</svg>
