<svg width="23" height="25" viewBox="0 0 23 25" fill="none" xmlns="http://www.w3.org/2000/svg">
<g clip-path="url(#clip0_91_1269)">
<path d="M16.833 1.13403C15.8105 1.14999 14.8103 1.43631 13.9333 1.96409C13.0564 2.49186 12.3339 3.24241 11.8386 4.13992C11.3434 3.24241 10.6208 2.49186 9.74393 1.96409C8.86701 1.43631 7.86677 1.14999 6.84424 1.13403C5.2142 1.20507 3.67844 1.92035 2.57247 3.12359C1.46651 4.32684 0.880252 5.92025 0.941774 7.5557C0.941774 11.6974 5.28781 16.2208 8.9328 19.2878C9.74663 19.9738 10.7756 20.3499 11.8386 20.3499C12.9017 20.3499 13.9306 19.9738 14.7445 19.2878C18.3895 16.2208 22.7355 11.6974 22.7355 7.5557C22.797 5.92025 22.2108 4.32684 21.1048 3.12359C19.9988 1.92035 18.4631 1.20507 16.833 1.13403ZM13.5776 17.8941C13.0908 18.3053 12.475 18.5307 11.8386 18.5307C11.2023 18.5307 10.5864 18.3053 10.0997 17.8941C5.434 13.9673 2.75792 10.2 2.75792 7.5557C2.69584 6.40318 3.0906 5.2728 3.85611 4.41109C4.62161 3.54937 5.69574 3.02624 6.84424 2.95578C7.99274 3.02624 9.06687 3.54937 9.83237 4.41109C10.5979 5.2728 10.9926 6.40318 10.9306 7.5557C10.9306 7.79728 11.0262 8.02896 11.1965 8.19978C11.3668 8.37061 11.5978 8.46657 11.8386 8.46657C12.0795 8.46657 12.3104 8.37061 12.4807 8.19978C12.651 8.02896 12.7467 7.79728 12.7467 7.5557C12.6846 6.40318 13.0794 5.2728 13.8449 4.41109C14.6104 3.54937 15.6845 3.02624 16.833 2.95578C17.9815 3.02624 19.0557 3.54937 19.8212 4.41109C20.5867 5.2728 20.9814 6.40318 20.9193 7.5557C20.9193 10.2 18.2433 13.9673 13.5776 17.8905V17.8941Z" fill="#031412"/>
</g>
<defs>
<clipPath id="clip0_91_1269">
<rect width="21.7937" height="23.8095" fill="white" transform="translate(0.941772 0.492188)"/>
</clipPath>
</defs>
</svg>
