<svg width="34" height="34" viewBox="0 0 34 34" fill="none" xmlns="http://www.w3.org/2000/svg">
<g clip-path="url(#clip0_93_1594)">
<path d="M22.8786 4.56957V1.43671C22.8786 0.967109 22.4979 0.586426 22.0283 0.586426H19.4775C19.0079 0.586426 18.6272 0.967109 18.6272 1.43671V1.93582L14.8354 2.6271C14.4021 2.70571 14.0039 2.91678 13.6956 3.23122L10.922 6.07669C10.6742 6.3258 10.5404 6.66633 10.5525 7.01751C10.5646 7.36869 10.7214 7.69922 10.9857 7.93072C11.2127 8.13089 11.5054 8.2406 11.808 8.23895C12.0762 8.23821 12.338 8.15706 12.5596 8.00597L15.2933 6.15576L15.2988 6.17022C15.5956 6.91025 16.3657 7.34571 17.1528 7.21862L18.3483 7.02262C18.5207 6.99396 18.6971 7.00018 18.867 7.04091L19.5128 7.20459C20.0654 7.3342 20.6444 7.29344 21.1734 7.08767C22.207 6.68061 22.8843 5.6804 22.8786 4.56957ZM22.0283 4.56957C22.0319 5.33096 21.5678 6.0165 20.8596 6.29606C20.4941 6.43579 20.0954 6.4639 19.7139 6.37684L19.0711 6.21401C18.7892 6.14531 18.4963 6.13446 18.2102 6.18212L17.0142 6.37811C16.6324 6.43966 16.2572 6.23579 16.101 5.88197L17.7433 5.41432C18.1904 5.28407 18.5978 5.04393 18.9282 4.71581C19.0387 4.60899 19.0829 4.45089 19.0439 4.30228C19.0048 4.15367 18.8887 4.03767 18.74 3.99887C18.5913 3.96007 18.4333 4.0045 18.3266 4.11509C18.0984 4.34195 17.8169 4.50786 17.5078 4.59762L15.4123 5.19282C15.2244 5.2384 15.0444 5.31192 14.8783 5.41092L12.083 7.30364C11.9238 7.4215 11.7055 7.41854 11.5495 7.29642C11.4575 7.21694 11.4032 7.10246 11.3998 6.98096C11.3962 6.86799 11.4398 6.75862 11.5201 6.67911L11.5261 6.67273L14.301 3.82429C14.4866 3.63464 14.7265 3.50732 14.9876 3.45995L18.7794 2.7708C19.1831 2.69735 19.4767 2.34612 19.4775 1.93582V1.43671H22.0283V4.56957Z" fill="white"/>
<path d="M29.4625 23.4646L32.5954 23.4646C33.065 23.4646 33.4457 23.0839 33.4457 22.6143L33.4457 20.0634C33.4457 19.5938 33.065 19.2132 32.5954 19.2132L32.0963 19.2132L31.405 15.4213C31.3264 14.988 31.1153 14.5898 30.8009 14.2815L27.9554 11.5079C27.7063 11.2601 27.3658 11.1264 27.0146 11.1384C26.6634 11.1505 26.3329 11.3073 26.1014 11.5717C25.9012 11.7986 25.7915 12.0913 25.7932 12.3939C25.7939 12.6621 25.875 12.9239 26.0261 13.1456L27.8763 15.8792L27.8619 15.8847C27.1219 16.1815 26.6864 16.9516 26.8135 17.7388L27.0095 18.9343C27.0381 19.1066 27.0319 19.283 26.9912 19.4529L26.8275 20.0987C26.6979 20.6514 26.7387 21.2303 26.9444 21.7593C27.3515 22.7929 28.3517 23.4702 29.4625 23.4646ZM29.4625 22.6143C28.7011 22.6178 28.0156 22.1538 27.736 21.4456C27.5963 21.0801 27.5682 20.6813 27.6553 20.2998L27.8181 19.657C27.8868 19.3751 27.8976 19.0823 27.85 18.7961L27.654 17.6002C27.5924 17.2184 27.7963 16.8431 28.1501 16.687L28.6178 18.3293C28.748 18.7764 28.9882 19.1837 29.3163 19.5142C29.4231 19.6246 29.5812 19.6688 29.7298 19.6298C29.8784 19.5908 29.9944 19.4746 30.0332 19.3259C30.072 19.1773 30.0276 19.0192 29.917 18.9126C29.6902 18.6843 29.5242 18.4028 29.4345 18.0938L28.8393 15.9982C28.7937 15.8103 28.7202 15.6303 28.6212 15.4643L26.7285 12.669C26.6106 12.5097 26.6136 12.2914 26.7357 12.1354C26.8152 12.0435 26.9296 11.9891 27.0511 11.9858C27.1641 11.9822 27.2735 12.0258 27.353 12.1061L27.3594 12.112L30.2078 14.8869C30.3975 15.0725 30.5248 15.3124 30.5722 15.5735L31.2613 19.3654C31.3348 19.769 31.686 20.0627 32.0963 20.0634L32.5954 20.0634L32.5954 22.6143L29.4625 22.6143Z" fill="white"/>
<path d="M11.7242 30.0486L11.7242 33.1815C11.7242 33.6511 12.1048 34.0317 12.5744 34.0317L15.1253 34.0317C15.5949 34.0317 15.9756 33.6511 15.9756 33.1815L15.9756 32.6823L19.7674 31.9911C20.2007 31.9125 20.5989 31.7014 20.9072 31.3869L23.6808 28.5415C23.9286 28.2924 24.0624 27.9518 24.0503 27.6007C24.0382 27.2495 23.8814 26.9189 23.617 26.6874C23.3901 26.4873 23.0974 26.3776 22.7948 26.3792C22.5266 26.38 22.2648 26.4611 22.0432 26.6122L19.3095 28.4624L19.304 28.4479C19.0072 27.7079 18.2371 27.2725 17.45 27.3995L16.2545 27.5955C16.0821 27.6242 15.9057 27.618 15.7358 27.5773L15.09 27.4136C14.5374 27.284 13.9584 27.3247 13.4294 27.5305C12.3958 27.9376 11.7185 28.9378 11.7242 30.0486ZM12.5744 30.0486C12.5709 29.2872 13.0349 28.6017 13.7432 28.3221C14.1087 28.1824 14.5074 28.1543 14.8889 28.2413L15.5317 28.4042C15.8136 28.4729 16.1065 28.4837 16.3926 28.436L17.5885 28.2401C17.9704 28.1785 18.3456 28.3824 18.5017 28.7362L16.8594 29.2038C16.4123 29.3341 16.005 29.5742 15.6746 29.9024C15.5641 30.0092 15.5199 30.1673 15.5589 30.3159C15.5979 30.4645 15.7141 30.5805 15.8628 30.6193C16.0114 30.6581 16.1695 30.6137 16.2761 30.5031C16.5044 30.2762 16.7859 30.1103 17.095 30.0205L19.1905 29.4253C19.3784 29.3798 19.5584 29.3062 19.7245 29.2072L22.5198 27.3145C22.679 27.1967 22.8973 27.1996 23.0533 27.3218C23.1453 27.4012 23.1996 27.5157 23.203 27.6372C23.2066 27.7502 23.163 27.8595 23.0826 27.9391L23.0767 27.9454L20.3018 30.7939C20.1162 30.9835 19.8763 31.1108 19.6152 31.1582L15.8234 31.8474C15.4197 31.9208 15.126 32.272 15.1253 32.6823L15.1253 33.1815L12.5744 33.1815L12.5744 30.0486Z" fill="white"/>
<path d="M3.98314 11.7244L0.85028 11.7244C0.380683 11.7244 -5.22184e-07 12.1051 -5.01657e-07 12.5747L-3.90156e-07 15.1255C-3.6963e-07 15.5951 0.380683 15.9758 0.85028 15.9758L1.3494 15.9758L2.04067 19.7676C2.11928 20.2009 2.33035 20.5992 2.6448 20.9074L5.49026 23.6811C5.73938 23.9289 6.07991 24.0626 6.43109 24.0505C6.78226 24.0384 7.1128 23.8816 7.3443 23.6173C7.54447 23.3903 7.65417 23.0977 7.65253 22.7951C7.65179 22.5269 7.57063 22.265 7.41955 22.0434L5.56934 19.3098L5.58379 19.3042C6.32382 19.0074 6.75928 18.2373 6.63219 17.4502L6.4362 16.2547C6.40753 16.0823 6.41375 15.906 6.45448 15.736L6.61816 15.0902C6.74777 14.5376 6.70701 13.9587 6.50125 13.4296C6.09419 12.3961 5.09398 11.7187 3.98314 11.7244ZM3.98314 12.5747C4.74453 12.5711 5.43008 13.0352 5.70963 13.7434C5.84936 14.1089 5.87747 14.5077 5.79041 14.8892L5.62758 15.532C5.55888 15.8138 5.54804 16.1067 5.5957 16.3929L5.79169 17.5888C5.85323 17.9706 5.64936 18.3458 5.29555 18.502L4.82789 16.8597C4.69765 16.4126 4.45751 16.0052 4.12939 15.6748C4.02257 15.5644 3.86447 15.5202 3.71586 15.5592C3.56724 15.5982 3.45124 15.7143 3.41244 15.863C3.37364 16.0117 3.41807 16.1697 3.52866 16.2764C3.75552 16.5046 3.92144 16.7862 4.0112 17.0952L4.6064 19.1907C4.65198 19.3786 4.72549 19.5586 4.82449 19.7247L6.71722 22.52C6.83508 22.6792 6.83212 22.8976 6.70999 23.0535C6.63052 23.1455 6.51604 23.1998 6.39454 23.2032C6.28157 23.2068 6.1722 23.1632 6.09269 23.0829L6.08631 23.0769L3.23787 20.302C3.04821 20.1164 2.9209 19.8765 2.87352 19.6154L2.18437 15.8236C2.11093 15.4199 1.75969 15.1263 1.3494 15.1255L0.85028 15.1255L0.85028 12.5747L3.98314 12.5747Z" fill="white"/>
<mask id="path-5-outside-1_93_1594" maskUnits="userSpaceOnUse" x="7.40173" y="7.98779" width="19" height="19" fill="black">
<rect fill="white" x="7.40173" y="7.98779" width="19" height="19"/>
<path d="M24.656 14.3958C23.4145 11.1381 20.2896 8.98603 16.8034 8.98781C16.0281 8.98639 15.2563 9.09324 14.5105 9.30523L14.4992 9.30859C12.4292 9.89386 10.6647 11.255 9.57316 13.1086C9.55384 13.1412 9.54133 13.1774 9.53636 13.215C9.40222 13.394 9.29089 13.5891 9.20491 13.7956L9.18384 13.8411C7.97528 16.4443 8.17749 19.484 9.72027 21.9041C11.263 24.3243 13.9334 25.7906 16.8034 25.7938C18.7328 25.7954 20.6035 25.1299 22.0983 23.9101C22.2194 23.9205 22.3332 23.8509 22.3792 23.7384C22.388 23.7125 22.393 23.6855 22.3941 23.6581C24.9973 21.3394 25.8974 17.6534 24.656 14.3958ZM14.4697 9.90383C14.8411 10.3593 15.3883 10.6358 15.9754 10.6645C16.1359 10.6686 16.2964 10.6616 16.456 10.6434C16.714 10.5849 16.9843 10.6171 17.2214 10.7344C17.3541 10.8054 17.4274 10.9526 17.404 11.1013C17.343 11.2133 17.2594 11.3113 17.1585 11.3892C16.9075 11.5595 16.7562 11.8423 16.754 12.1457C16.773 12.3345 16.8741 12.5054 17.0304 12.6131C17.2615 12.7675 17.5463 12.819 17.8169 12.7555C17.9668 12.7162 18.1129 12.6634 18.2531 12.5976C18.3807 12.5349 18.5157 12.4885 18.6548 12.4597C19.0104 12.4097 19.3756 12.6448 19.7484 12.9122C19.9352 13.0473 20.2394 13.3026 20.1764 13.4965C20.1281 13.645 19.9467 13.7524 19.7551 13.8664C19.6776 13.9122 19.6017 13.9571 19.5141 14.0181C19.2038 14.253 18.8638 14.4458 18.5029 14.5914C18.3664 14.6368 18.2276 14.6743 18.0868 14.7037C17.7938 14.755 17.5122 14.8578 17.2551 15.0074C16.7391 15.3406 16.802 15.8737 16.8416 16.1942C16.8324 16.1911 16.8223 16.1874 16.8113 16.1827C16.7633 16.163 16.7161 16.1405 16.6692 16.1186C16.3787 15.9227 16.0024 15.9076 15.6972 16.0797C15.392 16.2518 15.2102 16.5816 15.2276 16.9315C15.2276 17.5981 15.7225 17.9869 16.1203 18.2989L16.2585 18.4085C16.3463 18.4891 16.4253 18.5788 16.4941 18.6762C15.9295 18.534 15.3646 18.3942 14.7992 18.2568C14.3239 18.1419 13.8442 18.0003 13.6475 17.6486C13.5724 17.4893 13.5217 17.3195 13.4973 17.145C13.4616 16.8681 13.3643 16.6028 13.2124 16.3686C12.9241 16.0468 12.5356 15.8318 12.1099 15.7585L12.0585 15.7439C11.6372 15.6186 11.4063 15.4678 11.331 15.2703C11.284 15.014 11.3259 14.7494 11.4495 14.52C11.6083 14.1897 11.6613 13.8184 11.6012 13.4568C11.5382 13.1796 11.3528 12.9458 11.0973 12.8211C10.9454 12.7504 10.7797 12.7148 10.6122 12.7169C10.5765 12.7169 10.5402 12.7186 10.5037 12.7214C11.4904 11.3823 12.8804 10.3947 14.4697 9.90383ZM15.6231 25.1408L15.6256 25.1433C15.5154 25.0822 15.4085 25.0152 15.3054 24.9427C15.0784 24.8013 14.9231 24.569 14.8793 24.3051C14.895 24.1356 14.9498 23.9722 15.0394 23.8275C15.1022 23.6938 15.1486 23.553 15.1776 23.4082C15.1954 23.2767 15.2435 23.1511 15.3181 23.0413C15.4011 22.9656 15.4974 22.9058 15.602 22.8649C15.7193 22.813 15.8307 22.749 15.9346 22.6739C16.1587 22.4954 16.3446 22.2735 16.4812 22.0217C16.5472 21.9059 16.6043 21.7798 16.6593 21.6565C16.734 21.461 16.8382 21.278 16.9683 21.1141C17.2492 20.8183 17.8026 21.0379 18.0267 21.1453C18.4545 21.3374 18.8477 21.5984 19.1908 21.918L19.2231 21.9511C19.5865 22.3353 19.9733 22.6968 20.3812 23.0334C20.7186 23.2941 21.0884 23.5101 21.4812 23.6759C19.8028 24.9275 17.6931 25.455 15.6231 25.1408ZM21.9775 23.2761C21.5321 23.1113 21.1131 22.8822 20.734 22.5961C20.3441 22.2734 19.9742 21.9273 19.6264 21.5596L19.5941 21.5267C19.2069 21.1598 18.7605 20.8607 18.2739 20.6419C17.5633 20.3009 16.9402 20.3329 16.5636 20.7301C16.3879 20.938 16.2481 21.1738 16.1498 21.4276C16.0995 21.5382 16.0506 21.6475 15.9964 21.743C15.8965 21.9297 15.7604 22.0948 15.5961 22.2284C15.5223 22.2798 15.4436 22.3238 15.361 22.3596C15.1899 22.4298 15.0345 22.5335 14.904 22.6646C14.7617 22.8423 14.6681 23.0539 14.6324 23.2787C14.6128 23.3791 14.5822 23.4771 14.5411 23.5708C14.4073 23.7942 14.3307 24.0472 14.3181 24.3073C14.3222 24.5114 14.3818 24.7104 14.4905 24.8831C12.327 24.2124 10.5585 22.64 9.63929 20.5698C8.7201 18.4996 8.73969 16.1332 9.69308 14.0785L9.71444 14.0322C9.79068 13.8308 9.90451 13.6458 10.0498 13.4869C10.1015 13.4354 10.1624 13.394 10.2293 13.365C10.3505 13.3108 10.4815 13.2822 10.6142 13.2808C10.6962 13.2789 10.7777 13.2952 10.8527 13.3285C10.9587 13.382 11.034 13.4816 11.0566 13.5982C11.0812 13.8495 11.0344 14.1027 10.9215 14.3285C10.7422 14.682 10.7008 15.0895 10.8055 15.4718C10.994 15.9642 11.5192 16.171 11.901 16.2844L11.9572 16.3002C12.2607 16.3488 12.5419 16.4897 12.7625 16.7038C12.8622 16.873 12.9254 17.0612 12.9482 17.2563C12.9827 17.4886 13.0538 17.714 13.1589 17.924C13.4656 18.4737 14.0996 18.6667 14.6693 18.8043C15.2805 18.9528 15.8923 19.1043 16.5046 19.2588C16.6277 19.299 16.7607 19.2973 16.8827 19.254C17.0251 19.1987 17.127 19.0716 17.1501 18.9206C17.2142 18.4951 16.6263 17.9833 16.6165 17.976L16.4687 17.8585C16.1201 17.585 15.7909 17.3265 15.7909 16.9316C15.7876 16.7657 15.8832 16.6137 16.0341 16.5448C16.1389 16.5013 16.2265 16.533 16.4308 16.6291C16.487 16.6555 16.5431 16.6819 16.5945 16.7027C16.8128 16.8197 17.0812 16.7859 17.2636 16.6184C17.3823 16.486 17.4323 16.3057 17.399 16.1311C17.3529 15.7566 17.3709 15.6019 17.5597 15.4797C17.7635 15.3676 17.9848 15.2908 18.2142 15.2524C18.3758 15.2178 18.5352 15.1738 18.6917 15.1207C19.1061 14.9553 19.4964 14.7352 19.8524 14.4662C19.9086 14.4266 19.9734 14.3889 20.0386 14.3504C20.3393 14.2157 20.5785 13.9731 20.7091 13.6707C20.8414 13.2645 20.6282 12.856 20.0749 12.4569C19.7195 12.2021 19.1808 11.817 18.5723 11.9044C18.3836 11.939 18.2003 11.9991 18.0277 12.083C17.9177 12.1349 17.8034 12.1772 17.6861 12.2094C17.5735 12.2354 17.4552 12.2168 17.356 12.1574C17.3148 12.1276 17.3125 12.1043 17.3117 12.0956C17.3055 12.0226 17.3959 11.9324 17.5364 11.8029C17.7094 11.667 17.8457 11.4899 17.9328 11.2878C18.0483 10.8905 17.8778 10.4657 17.5195 10.2586C17.1794 10.0715 16.7843 10.0098 16.4033 10.0842C16.2696 10.0999 16.135 10.1063 16.0005 10.1032C15.6647 10.085 15.3442 9.9567 15.0887 9.7381C18.5851 8.95051 22.1702 10.6351 23.7956 13.8293C25.4209 17.0235 24.6723 20.9133 21.9775 23.2761Z"/>
</mask>
<path d="M24.656 14.3958C23.4145 11.1381 20.2896 8.98603 16.8034 8.98781C16.0281 8.98639 15.2563 9.09324 14.5105 9.30523L14.4992 9.30859C12.4292 9.89386 10.6647 11.255 9.57316 13.1086C9.55384 13.1412 9.54133 13.1774 9.53636 13.215C9.40222 13.394 9.29089 13.5891 9.20491 13.7956L9.18384 13.8411C7.97528 16.4443 8.17749 19.484 9.72027 21.9041C11.263 24.3243 13.9334 25.7906 16.8034 25.7938C18.7328 25.7954 20.6035 25.1299 22.0983 23.9101C22.2194 23.9205 22.3332 23.8509 22.3792 23.7384C22.388 23.7125 22.393 23.6855 22.3941 23.6581C24.9973 21.3394 25.8974 17.6534 24.656 14.3958ZM14.4697 9.90383C14.8411 10.3593 15.3883 10.6358 15.9754 10.6645C16.1359 10.6686 16.2964 10.6616 16.456 10.6434C16.714 10.5849 16.9843 10.6171 17.2214 10.7344C17.3541 10.8054 17.4274 10.9526 17.404 11.1013C17.343 11.2133 17.2594 11.3113 17.1585 11.3892C16.9075 11.5595 16.7562 11.8423 16.754 12.1457C16.773 12.3345 16.8741 12.5054 17.0304 12.6131C17.2615 12.7675 17.5463 12.819 17.8169 12.7555C17.9668 12.7162 18.1129 12.6634 18.2531 12.5976C18.3807 12.5349 18.5157 12.4885 18.6548 12.4597C19.0104 12.4097 19.3756 12.6448 19.7484 12.9122C19.9352 13.0473 20.2394 13.3026 20.1764 13.4965C20.1281 13.645 19.9467 13.7524 19.7551 13.8664C19.6776 13.9122 19.6017 13.9571 19.5141 14.0181C19.2038 14.253 18.8638 14.4458 18.5029 14.5914C18.3664 14.6368 18.2276 14.6743 18.0868 14.7037C17.7938 14.755 17.5122 14.8578 17.2551 15.0074C16.7391 15.3406 16.802 15.8737 16.8416 16.1942C16.8324 16.1911 16.8223 16.1874 16.8113 16.1827C16.7633 16.163 16.7161 16.1405 16.6692 16.1186C16.3787 15.9227 16.0024 15.9076 15.6972 16.0797C15.392 16.2518 15.2102 16.5816 15.2276 16.9315C15.2276 17.5981 15.7225 17.9869 16.1203 18.2989L16.2585 18.4085C16.3463 18.4891 16.4253 18.5788 16.4941 18.6762C15.9295 18.534 15.3646 18.3942 14.7992 18.2568C14.3239 18.1419 13.8442 18.0003 13.6475 17.6486C13.5724 17.4893 13.5217 17.3195 13.4973 17.145C13.4616 16.8681 13.3643 16.6028 13.2124 16.3686C12.9241 16.0468 12.5356 15.8318 12.1099 15.7585L12.0585 15.7439C11.6372 15.6186 11.4063 15.4678 11.331 15.2703C11.284 15.014 11.3259 14.7494 11.4495 14.52C11.6083 14.1897 11.6613 13.8184 11.6012 13.4568C11.5382 13.1796 11.3528 12.9458 11.0973 12.8211C10.9454 12.7504 10.7797 12.7148 10.6122 12.7169C10.5765 12.7169 10.5402 12.7186 10.5037 12.7214C11.4904 11.3823 12.8804 10.3947 14.4697 9.90383ZM15.6231 25.1408L15.6256 25.1433C15.5154 25.0822 15.4085 25.0152 15.3054 24.9427C15.0784 24.8013 14.9231 24.569 14.8793 24.3051C14.895 24.1356 14.9498 23.9722 15.0394 23.8275C15.1022 23.6938 15.1486 23.553 15.1776 23.4082C15.1954 23.2767 15.2435 23.1511 15.3181 23.0413C15.4011 22.9656 15.4974 22.9058 15.602 22.8649C15.7193 22.813 15.8307 22.749 15.9346 22.6739C16.1587 22.4954 16.3446 22.2735 16.4812 22.0217C16.5472 21.9059 16.6043 21.7798 16.6593 21.6565C16.734 21.461 16.8382 21.278 16.9683 21.1141C17.2492 20.8183 17.8026 21.0379 18.0267 21.1453C18.4545 21.3374 18.8477 21.5984 19.1908 21.918L19.2231 21.9511C19.5865 22.3353 19.9733 22.6968 20.3812 23.0334C20.7186 23.2941 21.0884 23.5101 21.4812 23.6759C19.8028 24.9275 17.6931 25.455 15.6231 25.1408ZM21.9775 23.2761C21.5321 23.1113 21.1131 22.8822 20.734 22.5961C20.3441 22.2734 19.9742 21.9273 19.6264 21.5596L19.5941 21.5267C19.2069 21.1598 18.7605 20.8607 18.2739 20.6419C17.5633 20.3009 16.9402 20.3329 16.5636 20.7301C16.3879 20.938 16.2481 21.1738 16.1498 21.4276C16.0995 21.5382 16.0506 21.6475 15.9964 21.743C15.8965 21.9297 15.7604 22.0948 15.5961 22.2284C15.5223 22.2798 15.4436 22.3238 15.361 22.3596C15.1899 22.4298 15.0345 22.5335 14.904 22.6646C14.7617 22.8423 14.6681 23.0539 14.6324 23.2787C14.6128 23.3791 14.5822 23.4771 14.5411 23.5708C14.4073 23.7942 14.3307 24.0472 14.3181 24.3073C14.3222 24.5114 14.3818 24.7104 14.4905 24.8831C12.327 24.2124 10.5585 22.64 9.63929 20.5698C8.7201 18.4996 8.73969 16.1332 9.69308 14.0785L9.71444 14.0322C9.79068 13.8308 9.90451 13.6458 10.0498 13.4869C10.1015 13.4354 10.1624 13.394 10.2293 13.365C10.3505 13.3108 10.4815 13.2822 10.6142 13.2808C10.6962 13.2789 10.7777 13.2952 10.8527 13.3285C10.9587 13.382 11.034 13.4816 11.0566 13.5982C11.0812 13.8495 11.0344 14.1027 10.9215 14.3285C10.7422 14.682 10.7008 15.0895 10.8055 15.4718C10.994 15.9642 11.5192 16.171 11.901 16.2844L11.9572 16.3002C12.2607 16.3488 12.5419 16.4897 12.7625 16.7038C12.8622 16.873 12.9254 17.0612 12.9482 17.2563C12.9827 17.4886 13.0538 17.714 13.1589 17.924C13.4656 18.4737 14.0996 18.6667 14.6693 18.8043C15.2805 18.9528 15.8923 19.1043 16.5046 19.2588C16.6277 19.299 16.7607 19.2973 16.8827 19.254C17.0251 19.1987 17.127 19.0716 17.1501 18.9206C17.2142 18.4951 16.6263 17.9833 16.6165 17.976L16.4687 17.8585C16.1201 17.585 15.7909 17.3265 15.7909 16.9316C15.7876 16.7657 15.8832 16.6137 16.0341 16.5448C16.1389 16.5013 16.2265 16.533 16.4308 16.6291C16.487 16.6555 16.5431 16.6819 16.5945 16.7027C16.8128 16.8197 17.0812 16.7859 17.2636 16.6184C17.3823 16.486 17.4323 16.3057 17.399 16.1311C17.3529 15.7566 17.3709 15.6019 17.5597 15.4797C17.7635 15.3676 17.9848 15.2908 18.2142 15.2524C18.3758 15.2178 18.5352 15.1738 18.6917 15.1207C19.1061 14.9553 19.4964 14.7352 19.8524 14.4662C19.9086 14.4266 19.9734 14.3889 20.0386 14.3504C20.3393 14.2157 20.5785 13.9731 20.7091 13.6707C20.8414 13.2645 20.6282 12.856 20.0749 12.4569C19.7195 12.2021 19.1808 11.817 18.5723 11.9044C18.3836 11.939 18.2003 11.9991 18.0277 12.083C17.9177 12.1349 17.8034 12.1772 17.6861 12.2094C17.5735 12.2354 17.4552 12.2168 17.356 12.1574C17.3148 12.1276 17.3125 12.1043 17.3117 12.0956C17.3055 12.0226 17.3959 11.9324 17.5364 11.8029C17.7094 11.667 17.8457 11.4899 17.9328 11.2878C18.0483 10.8905 17.8778 10.4657 17.5195 10.2586C17.1794 10.0715 16.7843 10.0098 16.4033 10.0842C16.2696 10.0999 16.135 10.1063 16.0005 10.1032C15.6647 10.085 15.3442 9.9567 15.0887 9.7381C18.5851 8.95051 22.1702 10.6351 23.7956 13.8293C25.4209 17.0235 24.6723 20.9133 21.9775 23.2761Z" fill="white"/>
<path d="M24.656 14.3958C23.4145 11.1381 20.2896 8.98603 16.8034 8.98781C16.0281 8.98639 15.2563 9.09324 14.5105 9.30523L14.4992 9.30859C12.4292 9.89386 10.6647 11.255 9.57316 13.1086C9.55384 13.1412 9.54133 13.1774 9.53636 13.215C9.40222 13.394 9.29089 13.5891 9.20491 13.7956L9.18384 13.8411C7.97528 16.4443 8.17749 19.484 9.72027 21.9041C11.263 24.3243 13.9334 25.7906 16.8034 25.7938C18.7328 25.7954 20.6035 25.1299 22.0983 23.9101C22.2194 23.9205 22.3332 23.8509 22.3792 23.7384C22.388 23.7125 22.393 23.6855 22.3941 23.6581C24.9973 21.3394 25.8974 17.6534 24.656 14.3958ZM14.4697 9.90383C14.8411 10.3593 15.3883 10.6358 15.9754 10.6645C16.1359 10.6686 16.2964 10.6616 16.456 10.6434C16.714 10.5849 16.9843 10.6171 17.2214 10.7344C17.3541 10.8054 17.4274 10.9526 17.404 11.1013C17.343 11.2133 17.2594 11.3113 17.1585 11.3892C16.9075 11.5595 16.7562 11.8423 16.754 12.1457C16.773 12.3345 16.8741 12.5054 17.0304 12.6131C17.2615 12.7675 17.5463 12.819 17.8169 12.7555C17.9668 12.7162 18.1129 12.6634 18.2531 12.5976C18.3807 12.5349 18.5157 12.4885 18.6548 12.4597C19.0104 12.4097 19.3756 12.6448 19.7484 12.9122C19.9352 13.0473 20.2394 13.3026 20.1764 13.4965C20.1281 13.645 19.9467 13.7524 19.7551 13.8664C19.6776 13.9122 19.6017 13.9571 19.5141 14.0181C19.2038 14.253 18.8638 14.4458 18.5029 14.5914C18.3664 14.6368 18.2276 14.6743 18.0868 14.7037C17.7938 14.755 17.5122 14.8578 17.2551 15.0074C16.7391 15.3406 16.802 15.8737 16.8416 16.1942C16.8324 16.1911 16.8223 16.1874 16.8113 16.1827C16.7633 16.163 16.7161 16.1405 16.6692 16.1186C16.3787 15.9227 16.0024 15.9076 15.6972 16.0797C15.392 16.2518 15.2102 16.5816 15.2276 16.9315C15.2276 17.5981 15.7225 17.9869 16.1203 18.2989L16.2585 18.4085C16.3463 18.4891 16.4253 18.5788 16.4941 18.6762C15.9295 18.534 15.3646 18.3942 14.7992 18.2568C14.3239 18.1419 13.8442 18.0003 13.6475 17.6486C13.5724 17.4893 13.5217 17.3195 13.4973 17.145C13.4616 16.8681 13.3643 16.6028 13.2124 16.3686C12.9241 16.0468 12.5356 15.8318 12.1099 15.7585L12.0585 15.7439C11.6372 15.6186 11.4063 15.4678 11.331 15.2703C11.284 15.014 11.3259 14.7494 11.4495 14.52C11.6083 14.1897 11.6613 13.8184 11.6012 13.4568C11.5382 13.1796 11.3528 12.9458 11.0973 12.8211C10.9454 12.7504 10.7797 12.7148 10.6122 12.7169C10.5765 12.7169 10.5402 12.7186 10.5037 12.7214C11.4904 11.3823 12.8804 10.3947 14.4697 9.90383ZM15.6231 25.1408L15.6256 25.1433C15.5154 25.0822 15.4085 25.0152 15.3054 24.9427C15.0784 24.8013 14.9231 24.569 14.8793 24.3051C14.895 24.1356 14.9498 23.9722 15.0394 23.8275C15.1022 23.6938 15.1486 23.553 15.1776 23.4082C15.1954 23.2767 15.2435 23.1511 15.3181 23.0413C15.4011 22.9656 15.4974 22.9058 15.602 22.8649C15.7193 22.813 15.8307 22.749 15.9346 22.6739C16.1587 22.4954 16.3446 22.2735 16.4812 22.0217C16.5472 21.9059 16.6043 21.7798 16.6593 21.6565C16.734 21.461 16.8382 21.278 16.9683 21.1141C17.2492 20.8183 17.8026 21.0379 18.0267 21.1453C18.4545 21.3374 18.8477 21.5984 19.1908 21.918L19.2231 21.9511C19.5865 22.3353 19.9733 22.6968 20.3812 23.0334C20.7186 23.2941 21.0884 23.5101 21.4812 23.6759C19.8028 24.9275 17.6931 25.455 15.6231 25.1408ZM21.9775 23.2761C21.5321 23.1113 21.1131 22.8822 20.734 22.5961C20.3441 22.2734 19.9742 21.9273 19.6264 21.5596L19.5941 21.5267C19.2069 21.1598 18.7605 20.8607 18.2739 20.6419C17.5633 20.3009 16.9402 20.3329 16.5636 20.7301C16.3879 20.938 16.2481 21.1738 16.1498 21.4276C16.0995 21.5382 16.0506 21.6475 15.9964 21.743C15.8965 21.9297 15.7604 22.0948 15.5961 22.2284C15.5223 22.2798 15.4436 22.3238 15.361 22.3596C15.1899 22.4298 15.0345 22.5335 14.904 22.6646C14.7617 22.8423 14.6681 23.0539 14.6324 23.2787C14.6128 23.3791 14.5822 23.4771 14.5411 23.5708C14.4073 23.7942 14.3307 24.0472 14.3181 24.3073C14.3222 24.5114 14.3818 24.7104 14.4905 24.8831C12.327 24.2124 10.5585 22.64 9.63929 20.5698C8.7201 18.4996 8.73969 16.1332 9.69308 14.0785L9.71444 14.0322C9.79068 13.8308 9.90451 13.6458 10.0498 13.4869C10.1015 13.4354 10.1624 13.394 10.2293 13.365C10.3505 13.3108 10.4815 13.2822 10.6142 13.2808C10.6962 13.2789 10.7777 13.2952 10.8527 13.3285C10.9587 13.382 11.034 13.4816 11.0566 13.5982C11.0812 13.8495 11.0344 14.1027 10.9215 14.3285C10.7422 14.682 10.7008 15.0895 10.8055 15.4718C10.994 15.9642 11.5192 16.171 11.901 16.2844L11.9572 16.3002C12.2607 16.3488 12.5419 16.4897 12.7625 16.7038C12.8622 16.873 12.9254 17.0612 12.9482 17.2563C12.9827 17.4886 13.0538 17.714 13.1589 17.924C13.4656 18.4737 14.0996 18.6667 14.6693 18.8043C15.2805 18.9528 15.8923 19.1043 16.5046 19.2588C16.6277 19.299 16.7607 19.2973 16.8827 19.254C17.0251 19.1987 17.127 19.0716 17.1501 18.9206C17.2142 18.4951 16.6263 17.9833 16.6165 17.976L16.4687 17.8585C16.1201 17.585 15.7909 17.3265 15.7909 16.9316C15.7876 16.7657 15.8832 16.6137 16.0341 16.5448C16.1389 16.5013 16.2265 16.533 16.4308 16.6291C16.487 16.6555 16.5431 16.6819 16.5945 16.7027C16.8128 16.8197 17.0812 16.7859 17.2636 16.6184C17.3823 16.486 17.4323 16.3057 17.399 16.1311C17.3529 15.7566 17.3709 15.6019 17.5597 15.4797C17.7635 15.3676 17.9848 15.2908 18.2142 15.2524C18.3758 15.2178 18.5352 15.1738 18.6917 15.1207C19.1061 14.9553 19.4964 14.7352 19.8524 14.4662C19.9086 14.4266 19.9734 14.3889 20.0386 14.3504C20.3393 14.2157 20.5785 13.9731 20.7091 13.6707C20.8414 13.2645 20.6282 12.856 20.0749 12.4569C19.7195 12.2021 19.1808 11.817 18.5723 11.9044C18.3836 11.939 18.2003 11.9991 18.0277 12.083C17.9177 12.1349 17.8034 12.1772 17.6861 12.2094C17.5735 12.2354 17.4552 12.2168 17.356 12.1574C17.3148 12.1276 17.3125 12.1043 17.3117 12.0956C17.3055 12.0226 17.3959 11.9324 17.5364 11.8029C17.7094 11.667 17.8457 11.4899 17.9328 11.2878C18.0483 10.8905 17.8778 10.4657 17.5195 10.2586C17.1794 10.0715 16.7843 10.0098 16.4033 10.0842C16.2696 10.0999 16.135 10.1063 16.0005 10.1032C15.6647 10.085 15.3442 9.9567 15.0887 9.7381C18.5851 8.95051 22.1702 10.6351 23.7956 13.8293C25.4209 17.0235 24.6723 20.9133 21.9775 23.2761Z" stroke="white" stroke-width="0.6" mask="url(#path-5-outside-1_93_1594)"/>
</g>
<defs>
<clipPath id="clip0_93_1594">
<rect width="34" height="34" fill="white"/>
</clipPath>
</defs>
</svg>
